<?xml version="1.0" standalone="no"?>
<!DOCTYPE svg PUBLIC "-//W3C//DTD SVG 20010904//EN"
 "http://www.w3.org/TR/2001/REC-SVG-20010904/DTD/svg10.dtd">
<svg version="1.0" xmlns="http://www.w3.org/2000/svg"
 width="920.000000pt" height="920.000000pt" viewBox="0 0 920.000000 920.000000"
 preserveAspectRatio="xMidYMid meet">
<metadata>
Created by potrace 1.14, written by Peter Selinger 2001-2017
</metadata>
<g transform="translate(0.000000,920.000000) scale(0.100000,-0.100000)"
fill="#000000" stroke="none">
<path d="M4330 6419 c-489 -31 -874 -128 -1209 -305 -389 -206 -688 -543 -771
-869 -26 -100 -44 -289 -36 -375 11 -112 69 -200 159 -241 26 -12 27 -16 27
-82 l0 -69 -27 6 c-16 4 -66 10 -113 13 -82 5 -86 4 -109 -21 -17 -18 -25 -38
-25 -63 0 -53 34 -78 118 -86 37 -4 87 -15 111 -26 l45 -20 0 -115 0 -116 -42
0 c-74 0 -168 -20 -220 -46 -67 -34 -134 -103 -166 -172 -22 -48 -27 -71 -27
-147 0 -82 3 -96 33 -157 39 -80 113 -150 182 -175 l47 -17 7 -95 c10 -158 44
-241 137 -333 67 -67 156 -114 245 -128 77 -13 3715 -13 3802 0 92 13 183 59
251 128 93 92 127 175 137 333 l7 95 47 17 c69 25 143 95 182 175 30 61 33 75
33 157 0 75 -5 99 -26 145 -65 138 -207 220 -386 220 l-43 0 0 116 0 115 45
20 c24 11 74 22 111 26 84 8 118 33 118 86 0 25 -8 45 -24 63 -24 25 -28 26
-110 21 -47 -3 -97 -9 -112 -13 l-28 -6 0 68 0 69 46 24 c119 64 157 177 135
411 -13 152 -41 253 -100 375 -231 477 -767 820 -1471 944 -302 53 -652 71
-980 50z m769 -194 c569 -75 989 -253 1282 -545 105 -104 198 -230 253 -342
46 -94 68 -201 73 -354 5 -139 5 -140 -20 -170 l-25 -29 -2057 -3 -2056 -2
-30 29 c-29 29 -29 31 -29 143 0 281 99 501 329 728 324 322 818 512 1466 564
129 10 695 -3 814 -19z m1431 -1733 l0 -113 -57 -27 c-49 -22 -72 -27 -148
-27 -104 0 -150 14 -263 83 -108 65 -170 85 -289 90 -125 5 -212 -13 -299 -64
-246 -143 -343 -149 -545 -34 -136 78 -209 100 -332 100 -120 0 -189 -21 -322
-97 -194 -111 -311 -110 -501 4 -118 70 -198 93 -323 93 -119 0 -200 -23 -307
-88 -119 -73 -164 -87 -269 -87 -77 0 -98 4 -147 27 l-58 27 0 113 0 113 1930
0 1930 0 0 -113z m-2977 -176 c32 -7 90 -34 130 -58 40 -25 104 -58 142 -74
65 -27 80 -29 195 -29 150 0 201 13 316 83 121 74 163 87 269 86 103 -1 115
-5 247 -80 130 -74 197 -94 323 -94 123 1 187 20 330 102 177 101 307 103 467
6 96 -57 134 -75 203 -94 66 -18 216 -18 288 1 32 8 60 15 62 15 3 0 5 -29 5
-65 l0 -65 -1930 0 -1930 0 0 65 c0 36 2 65 5 65 2 0 30 -7 62 -15 83 -22 226
-19 304 5 35 11 109 45 164 77 145 83 223 99 348 69z m457 -453 c19 -3 51 -24
75 -47 36 -35 45 -52 58 -111 18 -79 41 -105 92 -105 22 0 41 9 60 28 25 25
27 31 22 87 -3 33 -15 82 -26 108 l-20 47 1298 -2 1299 -3 39 -31 c55 -45 76
-86 76 -149 0 -73 -37 -135 -96 -164 -43 -21 -53 -21 -780 -21 l-736 0 21 46
c11 26 23 73 25 105 5 54 4 60 -25 88 -60 60 -134 27 -147 -65 -10 -64 -38
-114 -82 -144 l-37 -25 -1396 0 -1396 0 -37 25 c-96 66 -109 209 -25 287 59
55 15 53 894 53 446 0 826 -3 844 -7z m2700 -620 c0 -127 -56 -219 -165 -269
l-50 -24 -1895 0 -1895 0 -50 24 c-109 50 -165 142 -165 269 l0 77 2110 0
2110 0 0 -77z"/>
<path d="M4457 6040 c-59 -47 -42 -108 57 -192 64 -56 108 -64 143 -25 49 53
38 91 -55 180 -67 64 -100 72 -145 37z"/>
<path d="M5205 5998 c-32 -17 -45 -39 -45 -78 0 -58 29 -77 157 -104 95 -20
115 -21 141 -10 55 23 69 83 29 129 -18 22 -43 32 -127 51 -121 27 -128 27
-155 12z"/>
<path d="M3744 5870 c-40 -16 -54 -49 -54 -127 0 -61 3 -76 24 -99 18 -21 32
-28 61 -28 29 0 43 7 61 28 21 23 24 37 24 105 0 68 -3 80 -22 99 -28 25 -66
34 -94 22z"/>
<path d="M5736 5815 c-14 -13 -27 -32 -27 -42 -4 -62 12 -83 96 -125 259 -130
472 -353 524 -550 23 -90 38 -112 82 -123 31 -8 83 15 93 40 22 58 -20 215
-85 316 -126 196 -299 349 -526 466 -97 50 -120 52 -157 18z"/>
<path d="M5009 5587 c-26 -20 -41 -57 -34 -86 4 -17 34 -56 75 -95 77 -75 109
-83 156 -42 21 18 28 32 28 61 0 33 -8 45 -71 106 -59 58 -76 69 -104 69 -19
0 -41 -6 -50 -13z"/>
<path d="M4219 5441 c-60 -60 -69 -74 -69 -105 0 -50 36 -86 86 -86 31 0 45 9
105 69 59 59 69 74 69 104 0 24 -8 42 -26 61 -19 18 -37 26 -61 26 -30 0 -45
-10 -104 -69z"/>
<path d="M3213 5347 c-55 -56 -73 -80 -73 -101 0 -39 17 -66 53 -81 45 -19 75
-4 146 70 52 54 61 69 61 100 0 45 -39 85 -83 85 -25 0 -45 -14 -104 -73z"/>
<path d="M5655 5311 c-43 -26 -123 -115 -130 -144 -9 -36 18 -83 56 -96 25 -9
38 -8 65 5 39 18 120 103 134 138 13 36 -6 83 -41 101 -36 19 -48 19 -84 -4z"/>
<path d="M3744 5230 c-30 -12 -54 -49 -54 -83 0 -22 16 -45 67 -98 37 -38 77
-72 89 -75 53 -13 104 29 104 86 0 31 -9 45 -67 102 -69 68 -102 84 -139 68z"/>
<path d="M4763 5143 c-56 -11 -82 -99 -43 -141 27 -28 57 -35 130 -30 92 7
135 63 99 130 -21 38 -104 57 -186 41z"/>
</g>
</svg>
